<?xml version="1.0" encoding="utf-8"?>
<!-- Generator: Adobe Illustrator 25.4.0, SVG Export Plug-In . SVG Version: 6.00 Build 0)  -->
<svg version="1.1" id="Ebene_1" xmlns="http://www.w3.org/2000/svg" xmlns:xlink="http://www.w3.org/1999/xlink" x="0px" y="0px"
	 viewBox="0 0 498.4 498.4" style="enable-background:new 0 0 498.4 498.4;" xml:space="preserve">
<g>
	<path d="M249.2,0C111.8,0,0,111.8,0,249.2s111.8,249.2,249.2,249.2s249.2-111.8,249.2-249.2S386.6,0,249.2,0L249.2,0z M249.2,470.4
		c-122,0-221.2-99.2-221.2-221.2S127.2,28,249.2,28s221.2,99.2,221.2,221.2S371.2,470.4,249.2,470.4z M263.2,243.2V74.7
		c0-7.7-6.3-14-14-14c-7.7,0-14,6.3-14,14v174.5c0,3.8,1.6,7.5,4.3,10.1l96.1,92.4c2.7,2.6,6.2,3.9,9.7,3.9c3.7,0,7.3-1.4,10.1-4.3
		c5.4-5.6,5.2-14.4-0.4-19.8L263.2,243.2z"/>
</g>
</svg>
